<svg width="46" height="32" viewBox="0 0 46 32" fill="none" xmlns="http://www.w3.org/2000/svg">
<g clip-path="url(#clip0_14_1592)">
<path d="M30.157 31.6543H3.47738C1.77874 31.6543 0.397705 30.3085 0.397705 28.6549V26.4672C0.397705 25.9891 0.788253 25.6042 1.27056 25.6042H16.7654C17.003 25.6042 17.2289 25.6999 17.3936 25.8678L18.5205 27.027H27.0255C27.5078 27.027 27.8984 27.4118 27.8984 27.8899C27.8984 28.3681 27.5078 28.7529 27.0255 28.7529H18.1488C17.9112 28.7529 17.6853 28.6573 17.5206 28.4893L16.3937 27.3302H2.14341V28.6549C2.14341 29.357 2.74099 29.926 3.47738 29.926H30.157C30.6393 29.926 31.0298 30.3109 31.0298 30.789C31.0298 31.2671 30.6393 31.652 30.157 31.652V31.6543ZM29.9005 27.3302H29.2347C28.7524 27.3302 28.3618 26.9453 28.3618 26.4672C28.3618 25.9891 28.7524 25.6042 29.2347 25.6042H29.9005C30.3828 25.6042 30.7734 25.9891 30.7734 26.4672C30.7734 26.9453 30.3828 27.3302 29.9005 27.3302Z" fill="#6E7488"/>
<path d="M3.32207 24.837C2.83977 24.837 2.44922 24.4522 2.44922 23.9741V3.67816C2.44922 1.96857 3.85378 0.576172 5.58066 0.576172H40.4194C42.1463 0.576172 43.5508 1.96857 43.5508 3.67816V7.03438C43.5508 7.51251 43.1603 7.89967 42.678 7.89967C42.1957 7.89967 41.8051 7.51251 41.8051 7.03438V3.67816C41.8051 2.93415 41.1699 2.30442 40.4194 2.30442H5.58066C4.83015 2.30442 4.19492 2.93415 4.19492 3.67816V23.9741C4.19492 24.4522 3.80437 24.837 3.32207 24.837Z" fill="#6E7488"/>
<path d="M39.9582 5.50915H3.32207C2.83977 5.50915 2.44922 5.12198 2.44922 4.64386C2.44922 4.16573 2.83977 3.77856 3.32207 3.77856H39.9582C40.4405 3.77856 40.8311 4.16573 40.8311 4.64386C40.8311 5.12198 40.4405 5.50915 39.9582 5.50915Z" fill="#6E7488"/>
<path d="M43.3956 31.6543H33.8531C32.6438 31.6543 31.698 30.7167 31.698 29.5179V10.9526C31.698 9.7468 32.665 8.76489 33.8531 8.76489H43.3956C44.5908 8.76489 45.6024 9.76779 45.6024 10.9526V17.7677C45.6024 18.2458 45.2119 18.6306 44.7296 18.6306C44.2473 18.6306 43.8567 18.2458 43.8567 17.7677V10.9526C43.8567 10.717 43.6332 10.4955 43.3956 10.4955H33.8531C33.6296 10.4955 33.4437 10.7054 33.4437 10.9526V29.5179C33.4437 29.7512 33.6202 29.9261 33.8531 29.9261H43.3956C43.6473 29.9261 43.8567 29.7395 43.8567 29.5179V20.6667C43.8567 20.1886 44.2473 19.8038 44.7296 19.8038C45.2119 19.8038 45.6024 20.1886 45.6024 20.6667V29.5179C45.6024 30.6957 44.6119 31.6543 43.3956 31.6543Z" fill="#6E7488"/>
<path d="M38.9302 29.1612H38.3138C37.8315 29.1612 37.4409 28.7764 37.4409 28.2983C37.4409 27.8201 37.8315 27.4353 38.3138 27.4353H38.9302C39.4125 27.4353 39.803 27.8201 39.803 28.2983C39.803 28.7764 39.4125 29.1612 38.9302 29.1612Z" fill="#6E7488"/>
</g>
<defs>
<clipPath id="clip0_14_1592">
<rect width="45.2047" height="31.0782" fill="white" transform="translate(0.397705 0.576172)"/>
</clipPath>
</defs>
</svg>
