<svg xmlns="http://www.w3.org/2000/svg" width="67.346" height="54.704" viewBox="0 0 67.346 54.704">
  <g id="id-card_x" data-name="id-card x" transform="translate(-17 -29)">
    <path id="Path_4751" data-name="Path 4751" d="M21.345,77.88H50.13a1.086,1.086,0,0,0,0-2.172H21.345a2.175,2.175,0,0,1-2.172-2.172V33.345a2.175,2.175,0,0,1,2.172-2.172H80a2.175,2.175,0,0,1,2.172,2.172V55.069a1.086,1.086,0,0,0,2.172,0V33.345A4.35,4.35,0,0,0,80,29H21.345A4.35,4.35,0,0,0,17,33.345v40.19A4.35,4.35,0,0,0,21.345,77.88Z" transform="translate(0 0)" fill="#252c82"/>
    <path id="Path_4752" data-name="Path 4752" d="M54.293,52.147a8.147,8.147,0,1,0-8.147,8.147A8.156,8.156,0,0,0,54.293,52.147Zm-14.121,0a5.974,5.974,0,1,1,5.974,5.974A5.981,5.981,0,0,1,40.172,52.147Z" transform="translate(-9.595 -6.853)" fill="#252c82"/>
    <path id="Path_4753" data-name="Path 4753" d="M32,86.69v4.345a1.087,1.087,0,0,0,1.086,1.086H53.724a1.087,1.087,0,0,0,1.086-1.086V86.69A8.7,8.7,0,0,0,46.121,78H40.69A8.7,8.7,0,0,0,32,86.69Zm8.69-6.517h5.431a6.525,6.525,0,0,1,6.517,6.517v3.259H34.172V86.69A6.525,6.525,0,0,1,40.69,80.172Z" transform="translate(-6.853 -22.388)" fill="#252c82"/>
    <path id="Path_4754" data-name="Path 4754" d="M107.811,48H86.086a1.086,1.086,0,1,0,0,2.172h21.724a1.086,1.086,0,0,0,0-2.172Z" transform="translate(-31.068 -8.681)" fill="#252c82"/>
    <path id="Path_4755" data-name="Path 4755" d="M107.811,62H86.086a1.086,1.086,0,1,0,0,2.172h21.724a1.086,1.086,0,0,0,0-2.172Z" transform="translate(-31.068 -15.077)" fill="#252c82"/>
    <g id="_19" data-name="19" transform="translate(53.932 54.526)">
      <path id="Path_4771" data-name="Path 4771" d="M14.589,29.178A14.589,14.589,0,1,1,29.178,14.589,14.589,14.589,0,0,1,14.589,29.178Zm0-27.354A12.765,12.765,0,1,0,27.354,14.589,12.765,12.765,0,0,0,14.589,1.824Z" transform="translate(0 0)" fill="#ff5353"/>
      <path id="Path_4772" data-name="Path 4772" d="M12.59,11.29l5.726-5.744A.9.9,0,1,0,17.04,4.269L11.3,10,5.551,4.269A.9.9,0,1,0,4.275,5.546L10,11.29,4.275,17.035a.9.9,0,1,0,1.277,1.277L11.3,12.585l5.744,5.726a.9.9,0,1,0,1.277-1.277Z" transform="translate(3.293 3.299)" fill="#ff5353"/>
    </g>
  </g>
</svg>
