<svg xmlns="http://www.w3.org/2000/svg" width="52.292" height="43.858" viewBox="0 0 52.292 43.858">
  <g id="id-card" transform="translate(-17 -29)">
    <path id="Path_4751" data-name="Path 4751" d="M20.374,66.954h22.35a.843.843,0,0,0,0-1.687H20.374a1.689,1.689,0,0,1-1.687-1.687V32.374a1.689,1.689,0,0,1,1.687-1.687H65.918A1.689,1.689,0,0,1,67.6,32.374V49.242a.843.843,0,0,0,1.687,0V32.374A3.378,3.378,0,0,0,65.918,29H20.374A3.378,3.378,0,0,0,17,32.374V63.58A3.378,3.378,0,0,0,20.374,66.954Z" fill="#252c82"/>
    <path id="Path_4752" data-name="Path 4752" d="M50.651,50.326a6.326,6.326,0,1,0-6.326,6.326A6.333,6.333,0,0,0,50.651,50.326Zm-10.964,0a4.639,4.639,0,1,1,4.639,4.639A4.644,4.644,0,0,1,39.687,50.326Z" transform="translate(-12.144 -8.674)" fill="#252c82"/>
    <path id="Path_4753" data-name="Path 4753" d="M32,84.747v3.374a.844.844,0,0,0,.843.843H48.868a.844.844,0,0,0,.843-.843V84.747A6.755,6.755,0,0,0,42.964,78H38.747A6.755,6.755,0,0,0,32,84.747Zm6.747-5.06h4.217a5.066,5.066,0,0,1,5.06,5.06v2.53H33.687v-2.53A5.066,5.066,0,0,1,38.747,79.687Z" transform="translate(-8.674 -28.336)" fill="#252c82"/>
    <path id="Path_4754" data-name="Path 4754" d="M102.712,48H85.843a.843.843,0,0,0,0,1.687h16.868a.843.843,0,0,0,0-1.687Z" transform="translate(-39.324 -10.988)" fill="#252c82"/>
    <path id="Path_4755" data-name="Path 4755" d="M102.712,62H85.843a.843.843,0,1,0,0,1.687h16.868a.843.843,0,0,0,0-1.687Z" transform="translate(-39.324 -19.084)" fill="#252c82"/>
    <path id="Path_4756" data-name="Path 4756" d="M95.229,75a12.23,12.23,0,1,0,12.23,12.23A12.244,12.244,0,0,0,95.229,75Zm0,22.977A10.747,10.747,0,1,1,105.977,87.23,10.759,10.759,0,0,1,95.229,97.977Z" transform="translate(-38.167 -26.602)" fill="#252c82"/>
    <path id="Path_4757" data-name="Path 4757" d="M111.059,98.717l-7.444,7.443-4.85-4.849a.741.741,0,0,0-1.048,1.048l5.374,5.374a.741.741,0,0,0,1.048,0l7.968-7.968a.741.741,0,0,0-1.048-1.048Z" transform="translate(-47.294 -41.393)" fill="#7bb40f"/>
  </g>
</svg>
