<svg xmlns="http://www.w3.org/2000/svg" width="42.109" height="52.788" viewBox="0 0 42.109 52.788">
  <g id="mobile_phone" transform="translate(-25 -342)">
    <path id="Path_4746" data-name="Path 4746" d="M29.91,55a.91.91,0,1,0,0,1.82h3.641a.91.91,0,1,0,0-1.82Z" transform="translate(8.742 334.327)"/>
    <path id="Path_4748" data-name="Path 4748" d="M36.512,8.91A.86.86,0,0,0,35.6,8H27.41a.86.86,0,0,0-.91.91.86.86,0,0,0,.91.91H35.6A.86.86,0,0,0,36.512,8.91Z" transform="translate(8.967 338.551)" fill="#252c82"/>
    <g id="Group_4607" data-name="Group 4607" transform="translate(25 342)">
      <path id="Path_4747" data-name="Path 4747" d="M44.125,8.37a.91.91,0,1,0,1.82,0A5.439,5.439,0,0,0,40.575,3H20.37A5.439,5.439,0,0,0,15,8.37V50.418a5.38,5.38,0,0,0,5.37,5.37H40.575a5.38,5.38,0,0,0,5.37-5.37V37.585a.91.91,0,1,0-1.82,0V50.418a3.554,3.554,0,0,1-3.55,3.55H20.37a3.554,3.554,0,0,1-3.55-3.55V8.37a3.614,3.614,0,0,1,3.55-3.55H40.575a3.614,3.614,0,0,1,3.55,3.55Z" transform="translate(-15 -3)" fill="#252c82"/>
      <g id="Group_4606" data-name="Group 4606" transform="translate(18.203 8.191)">
        <path id="Path_4758" data-name="Path 4758" d="M94.953,75a11.953,11.953,0,1,0,11.953,11.953A11.967,11.967,0,0,0,94.953,75Zm0,22.457a10.5,10.5,0,1,1,10.5-10.5A10.516,10.516,0,0,1,94.953,97.457Z" transform="translate(-83 -75)" fill="#252c82"/>
        <path id="Path_4759" data-name="Path 4759" d="M110.752,98.712l-7.275,7.275-4.74-4.739a.724.724,0,0,0-1.024,1.024l5.252,5.252a.724.724,0,0,0,1.024,0l7.787-7.787a.724.724,0,0,0-1.024-1.024Z" transform="translate(-92.248 -89.988)" fill="#7bb40e"/>
      </g>
    </g>
  </g>
</svg>
