<svg xmlns="http://www.w3.org/2000/svg" width="55.876" height="60.788" viewBox="0 0 55.876 60.788">
  <g id="mobile_phone_camera" data-name="mobile phone camera" transform="translate(-156 -75.212)">
    <g id="Group_4615" data-name="Group 4615" transform="translate(-52)">
      <g id="Group_4614" data-name="Group 4614" transform="translate(183 -266.788)">
        <path id="Path_4746" data-name="Path 4746" d="M30.048,55a1.048,1.048,0,1,0,0,2.1H34.24a1.048,1.048,0,1,0,0-2.1Z" transform="translate(10.673 341.5)"/>
        <path id="Path_4748" data-name="Path 4748" d="M38.029,9.048A.99.99,0,0,0,36.981,8H27.548A.99.99,0,0,0,26.5,9.048.99.99,0,0,0,27.548,10.1h9.433A.99.99,0,0,0,38.029,9.048Z" transform="translate(10.553 339.24)" fill="#252c82"/>
        <g id="Group_4607" data-name="Group 4607" transform="translate(25 342)">
          <path id="Path_4747" data-name="Path 4747" d="M48.538,9.184a1.048,1.048,0,1,0,2.1,0A6.264,6.264,0,0,0,44.451,3H21.184A6.264,6.264,0,0,0,15,9.184V57.6a6.2,6.2,0,0,0,6.184,6.184H44.451A6.2,6.2,0,0,0,50.635,57.6V42.827a1.048,1.048,0,1,0-2.1,0V57.6a4.093,4.093,0,0,1-4.087,4.087H21.184A4.093,4.093,0,0,1,17.1,57.6V9.184A4.162,4.162,0,0,1,21.184,5.1H44.451a4.162,4.162,0,0,1,4.087,4.087Z" transform="translate(-15 -3)" fill="#252c82"/>
        </g>
      </g>
      <path id="camera_1_" data-name="camera (1)" d="M43.147,22.729a14.438,14.438,0,1,0,4.229,10.209A14.393,14.393,0,0,0,43.147,22.729ZM42.073,42.073a12.919,12.919,0,1,1,3.784-9.135A12.878,12.878,0,0,1,42.073,42.073ZM32.938,29.761a3.389,3.389,0,1,0,2.4.992A3.378,3.378,0,0,0,32.938,29.761Zm1.321,4.71a1.869,1.869,0,1,1,.547-1.321A1.863,1.863,0,0,1,34.259,34.47Zm4.486-8.131H36.461v-.5a1.746,1.746,0,0,0-1.743-1.743H31.159a1.746,1.746,0,0,0-1.743,1.743v.5H27.131a2.919,2.919,0,0,0-2.913,2.913v7.795a2.919,2.919,0,0,0,2.913,2.913H38.746a2.919,2.919,0,0,0,2.913-2.913V29.252a2.919,2.919,0,0,0-2.913-2.913Zm1.393,10.708a1.4,1.4,0,0,1-1.393,1.393H27.131a1.4,1.4,0,0,1-1.393-1.393V29.252a1.4,1.4,0,0,1,1.393-1.393h3.045a.76.76,0,0,0,.76-.76V25.836a.226.226,0,0,1,.223-.223h3.559a.226.226,0,0,1,.223.223V27.1a.76.76,0,0,0,.76.76h3.045a1.4,1.4,0,0,1,1.393,1.393Z" transform="translate(216.5 65.124)" fill="#ff5353"/>
    </g>
  </g>
</svg>
