<svg xmlns="http://www.w3.org/2000/svg" width="67.37" height="51.484" viewBox="0 0 67.37 51.484">
  <g id="face_x" data-name="face x" transform="translate(-152 -73)">
    <g id="face-scan" transform="translate(152 73)">
      <path id="Path_4783" data-name="Path 4783" d="M4.855,19.758A1.355,1.355,0,0,0,6.21,18.4V10.275A4.069,4.069,0,0,1,10.274,6.21H18.4a1.355,1.355,0,0,0,0-2.71H10.274A6.782,6.782,0,0,0,3.5,10.275V18.4a1.355,1.355,0,0,0,1.355,1.355Z" transform="translate(-3.5 -3.5)" fill="#252c82"/>
      <path id="Path_4784" data-name="Path 4784" d="M3.5,51.984a6.782,6.782,0,0,0,6.774,6.774H18.4a1.355,1.355,0,1,0,0-2.71H10.274A4.069,4.069,0,0,1,6.21,51.984V43.855a1.355,1.355,0,0,0-2.71,0Z" transform="translate(-3.5 -7.275)" fill="#252c82"/>
      <path id="Path_4785" data-name="Path 4785" d="M56.048,48.886v3.662a4.069,4.069,0,0,1-4.064,4.064H43.855a1.355,1.355,0,0,0,0,2.71h8.129a6.782,6.782,0,0,0,6.774-6.774V48.886C58.758,48.138,56.049,48.138,56.048,48.886Z" transform="translate(-7.274 -7.839)" fill="#252c82"/>
      <path id="Path_4786" data-name="Path 4786" d="M51.984,3.5H43.855a1.355,1.355,0,0,0,0,2.71h8.129a4.069,4.069,0,0,1,4.064,4.064l.08,4.119c0,.748,2.591.268,2.591.268l.038-4.387A6.782,6.782,0,0,0,51.984,3.5Z" transform="translate(-7.274 -3.5)" fill="#252c82"/>
      <path id="Path_4787" data-name="Path 4787" d="M38.814,24.7a8.366,8.366,0,0,0-8.507-8.486c-7.631-.175-11.727,9.77-5.372,15.042C19.505,32.769,14.818,36.671,14.5,43.31a1.355,1.355,0,1,0,2.706.129c.335-7.012,7.025-10.2,13.1-10.2s12.765,3.195,13.1,10.2a1.355,1.355,0,1,0,2.706-.129c-.314-6.638-5-10.54-10.433-12.052A8.407,8.407,0,0,0,38.814,24.7ZM30.306,30.4a5.578,5.578,0,0,1-5.8-5.695,5.8,5.8,0,0,1,11.6-.042,5.594,5.594,0,0,1-5.8,5.736Z" transform="translate(-4.565 -4.731)" fill="#252c82"/>
    </g>
    <g id="_19" data-name="19" transform="translate(193.016 85.565)">
      <path id="Path_4771" data-name="Path 4771" d="M13.177,26.354A13.177,13.177,0,1,1,26.354,13.177,13.177,13.177,0,0,1,13.177,26.354Zm0-24.707a11.53,11.53,0,1,0,11.53,11.53,11.53,11.53,0,0,0-11.53-11.53Z" transform="translate(0 0)" fill="#ff5353"/>
      <path id="Path_4772" data-name="Path 4772" d="M11.759,10.585,16.931,5.4a.815.815,0,1,0-1.153-1.153L10.589,9.416,5.4,4.244A.815.815,0,0,0,4.248,5.4L9.42,10.585,4.248,15.774A.815.815,0,1,0,5.4,16.927l5.188-5.172,5.188,5.172a.815.815,0,1,0,1.153-1.153Z" transform="translate(2.588 2.592)" fill="#ff5353"/>
    </g>
  </g>
</svg>
