<svg width="46" height="39" viewBox="0 0 46 39" fill="none" xmlns="http://www.w3.org/2000/svg">
<path fill-rule="evenodd" clip-rule="evenodd" d="M33.2206 1.75122C34.3606 1.2684 35.6806 1.8042 36.1628 2.94563L37.2792 5.58801H38.831L37.4792 2.38824C37.0968 1.48316 36.3853 0.781493 35.4759 0.412211C34.5664 0.0429276 33.5677 0.0504961 32.6637 0.433339L20.4932 5.58816H24.1618L33.2206 1.75137V1.75122ZM16.6788 19.5205C17.4295 19.8384 18.1037 20.2934 18.6824 20.8729C19.2612 21.4524 19.7155 22.1272 20.0331 22.879C20.3621 23.6578 20.5289 24.4845 20.5289 25.3363C20.5289 25.7314 20.2089 26.0518 19.8142 26.0518C19.4196 26.0518 19.0996 25.7314 19.0996 25.3363C19.0996 22.6449 16.9127 20.4552 14.2246 20.4552C11.5366 20.4552 9.34966 22.6449 9.34966 25.3363C9.34966 25.7314 9.02966 26.0518 8.63502 26.0518C8.24037 26.0518 7.92037 25.7314 7.92037 25.3363C7.92037 24.4844 8.08714 23.6576 8.41612 22.879C8.7336 22.1274 9.18809 21.4524 9.76683 20.8729C10.2753 20.3639 10.8574 19.9509 11.5004 19.6425C11.332 19.5181 11.1719 19.3803 11.0213 19.2296C10.232 18.4391 9.79722 17.3883 9.79722 16.2704C9.79722 15.1525 10.2319 14.1017 11.0213 13.3113C11.8108 12.521 12.8604 12.0856 13.9768 12.0856C15.0931 12.0856 16.1427 12.5208 16.9322 13.3113C17.7215 14.1017 18.1563 15.1526 18.1563 16.2704C18.1563 17.3882 17.7216 18.4391 16.9322 19.2296C16.8363 19.3256 16.7364 19.4162 16.6333 19.5016L16.6501 19.5085L16.6788 19.5205ZM11.2265 16.2704C11.2265 17.7888 12.4602 19.0241 13.9768 19.0241C15.4933 19.0241 16.727 17.7888 16.727 16.2704C16.727 14.752 15.4933 13.5167 13.9768 13.5167C12.4602 13.5167 11.2265 14.752 11.2265 16.2704ZM23.9384 12.0856H36.2099C36.6045 12.0856 36.9245 12.406 36.9245 12.8012C36.9245 13.1963 36.6045 13.5167 36.2099 13.5167H23.9384C23.5437 13.5167 23.2237 13.1963 23.2237 12.8012C23.2237 12.406 23.5437 12.0856 23.9384 12.0856ZM23.9384 18.3541H36.2099C36.6045 18.3541 36.9245 18.6745 36.9245 19.0697C36.9245 19.4648 36.6045 19.7852 36.2099 19.7852H23.9384C23.5437 19.7852 23.2237 19.4648 23.2237 19.0697C23.2237 18.6745 23.5437 18.3541 23.9384 18.3541ZM36.2099 24.6207H23.9384C23.5437 24.6207 23.2237 24.9411 23.2237 25.3363C23.2237 25.7314 23.5437 26.0518 23.9384 26.0518H36.2099C36.6045 26.0518 36.9245 25.7314 36.9245 25.3363C36.9245 24.9411 36.6045 24.6207 36.2099 24.6207ZM42.8436 15.0856L45.0723 20.3607L45.0726 20.3606C45.4549 21.2657 45.4625 22.2657 45.0937 23.1763C44.7249 24.0868 44.0241 24.7992 43.1201 25.1821L42.8439 25.2991V28.8268C42.8439 29.8095 42.4617 30.7333 41.7677 31.4282C41.0737 32.1231 40.151 32.5058 39.1696 32.5058H25.8291L13.3362 37.7971C12.4322 38.18 11.4335 38.1876 10.524 37.8183C9.61458 37.449 8.90308 36.7473 8.52072 35.8422L7.11111 32.5059H6.83048C5.84906 32.5059 4.92638 32.1232 4.23236 31.4284C3.53835 30.7335 3.15614 29.8096 3.15614 28.827V23.1447L0.927479 17.8696C0.545116 16.9645 0.537557 15.9645 0.906376 15.0539C1.2752 14.1433 1.97598 13.4309 2.87992 13.0481L3.15614 12.9311V9.31237C3.15614 8.32972 3.53835 7.40588 4.23236 6.71099C4.92638 6.01611 5.84906 5.63342 6.83048 5.63342H39.1693C40.1507 5.63342 41.0733 6.01611 41.7674 6.71099C42.4614 7.40588 42.8436 8.32972 42.8436 9.31237V15.0856ZM2.24386 17.3119L3.15614 19.4713V14.5093C2.21236 15.0757 1.80307 16.2687 2.24386 17.3119ZM9.83694 35.2845C10.3191 36.426 11.6391 36.9618 12.7791 36.479L22.1603 32.5056H8.66292L9.83694 35.2845ZM39.1694 31.0745C40.4072 31.0745 41.4143 30.0663 41.4143 28.8268V9.31237C41.4143 8.07286 40.4072 7.06451 39.1694 7.06451H6.83048C5.59268 7.06451 4.58559 8.07286 4.58559 9.31237V28.8268C4.58559 30.0662 5.59268 31.0745 6.83048 31.0745H39.1694ZM42.8436 18.7587V23.7207C43.7874 23.1543 44.1965 21.9613 43.7559 20.9181L42.8436 18.7587Z" fill="#6E7488"/>
</svg>
