<svg width="83" height="84" viewBox="0 0 83 84" fill="none" xmlns="http://www.w3.org/2000/svg">
<path d="M41.5 83.7062C30.4147 83.7062 19.9929 79.3804 12.1546 71.525C4.31641 63.6697 0 53.2251 0 42.1156C0 31.0061 4.31641 20.5615 12.1546 12.7061C19.9929 4.85075 30.4147 0.524902 41.5 0.524902C52.5853 0.524902 63.0071 4.85075 70.8453 12.7061C78.6836 20.5615 83 31.0061 83 42.1156C83 53.2251 78.6836 63.6697 70.8453 71.525C63.0071 79.3804 52.5853 83.7062 41.5 83.7062ZM41.5 4.76313C20.9483 4.76313 4.22899 21.5189 4.22899 42.1156C4.22899 62.7122 20.9483 79.468 41.5 79.468C62.0517 79.468 78.771 62.7122 78.771 42.1156C78.771 21.5189 62.0517 4.76313 41.5 4.76313Z" fill="#5DC1AC"/>
<path d="M37.4676 62.662H37.463C34.9605 62.662 32.6095 61.6826 30.8408 59.9084L18.9438 47.9666C15.3002 44.3088 15.3017 38.3574 18.95 34.7028C20.7234 32.9255 23.0744 31.9508 25.5753 31.9508C28.0761 31.9508 30.4271 32.9271 32.1958 34.6996L37.4817 39.997L50.8103 26.6393C54.4601 22.9815 60.4 22.9815 64.0514 26.6393C67.7013 30.2971 67.7013 36.2501 64.0514 39.9094L44.0882 59.9163C42.3195 61.6888 39.9685 62.6651 37.4676 62.6651V62.662ZM25.5753 36.189C24.2046 36.189 22.9152 36.7241 21.9457 37.6957C19.9413 39.7045 19.9413 42.9649 21.9379 44.9706L33.835 56.9124C34.8044 57.8855 36.0939 58.4222 37.4645 58.4222H37.4661C38.8367 58.4222 40.1262 57.8871 41.0956 56.9155L61.0588 36.9087C63.0601 34.903 63.0601 31.6395 61.0588 29.6338C59.0575 27.6281 55.8011 27.6281 53.7997 29.6338L52.3042 28.135L53.7997 29.6338L38.9757 44.4903C38.1498 45.3179 36.8104 45.3179 35.9846 44.4903L29.2032 37.6941C28.2338 36.7225 26.9443 36.1875 25.5737 36.1875L25.5753 36.189Z" fill="#5DC1AC"/>
</svg>
