<svg xmlns="http://www.w3.org/2000/svg" width="27.806" height="27.806" viewBox="0 0 27.806 27.806">
  <path id="chat-info" d="M4.747,30.013a2.5,2.5,0,0,1-2.368-3.284l1.2-3.557a1.68,1.68,0,0,0-.038-1.221,13.9,13.9,0,1,1,6.789,6.783A1.692,1.692,0,0,0,9.081,28.7L5.54,29.886A2.519,2.519,0,0,1,4.747,30.013ZM16.131,4.4A11.719,11.719,0,0,0,5.47,21.039,3.813,3.813,0,0,1,5.6,23.832L4.4,27.406a.342.342,0,0,0,.091.363.347.347,0,0,0,.366.091l3.557-1.194a3.812,3.812,0,0,1,2.82.134A11.734,11.734,0,1,0,16.123,4.4Zm1.444,7.472a1.423,1.423,0,0,0-1.423-1.423h-.014a1.423,1.423,0,1,0,1.437,1.423Zm-.384,8.538V16.141a1.067,1.067,0,0,0-2.134,0V20.41a1.067,1.067,0,0,0,2.134,0Z" transform="translate(-2.251 -2.21)" fill="#ffa600"/>
</svg>
