<svg id="close" xmlns="http://www.w3.org/2000/svg" width="22.747" height="22.6" viewBox="0 0 22.747 22.6">
  <path id="Path_4771" data-name="Path 4771" d="M11.373,22.6A11.3,11.3,0,1,1,22.747,11.3,11.337,11.337,0,0,1,11.373,22.6Zm0-21.187A9.888,9.888,0,1,0,21.325,11.3a9.92,9.92,0,0,0-9.952-9.887Z" transform="translate(0 0)" fill="#252c82"/>
  <path id="Path_4772" data-name="Path 4772" d="M10.74,9.648,15.233,5.2a.693.693,0,0,0,0-.989.715.715,0,0,0-1,0L9.724,8.645,5.217,4.21a.715.715,0,0,0-1,0,.693.693,0,0,0,0,.989L8.708,9.648,4.215,14.1a.672.672,0,0,0,0,.989.693.693,0,0,0,1,0l4.507-4.435,4.507,4.435a.693.693,0,0,0,1,0,.672.672,0,0,0,0-.989Z" transform="translate(1.649 1.652)" fill="#252c82"/>
</svg>
